<svg width="24" height="24" viewBox="0 0 24 24" fill="none" xmlns="http://www.w3.org/2000/svg">
<path d="M20.1429 18.1905V19.1429H3V18.1905L4.90476 16.2857V10.5714C4.90476 7.61905 6.83809 5.01905 9.66667 4.18095V3.90476C9.66667 3.39959 9.86735 2.9151 10.2246 2.55789C10.5818 2.20068 11.0663 2 11.5714 2C12.0766 2 12.5611 2.20068 12.9183 2.55789C13.2755 2.9151 13.4762 3.39959 13.4762 3.90476V4.18095C16.3048 5.01905 18.2381 7.61905 18.2381 10.5714V16.2857L20.1429 18.1905ZM13.4762 20.0952C13.4762 20.6004 13.2755 21.0849 12.9183 21.4421C12.5611 21.7993 12.0766 22 11.5714 22C11.0663 22 10.5818 21.7993 10.2246 21.4421C9.86735 21.0849 9.66667 20.6004 9.66667 20.0952" fill="white"/>
</svg>
