<svg width="32" height="32" viewBox="0 0 32 32" fill="none" xmlns="http://www.w3.org/2000/svg">
<path d="M16 0C12.8355 0 9.74207 0.938383 7.11088 2.69649C4.4797 4.45459 2.42894 6.95344 1.21793 9.87706C0.00693254 12.8007 -0.309921 16.0177 0.307443 19.1214C0.924806 22.2251 2.44866 25.0761 4.6863 27.3137C6.92394 29.5513 9.77486 31.0752 12.8786 31.6926C15.9823 32.3099 19.1993 31.9931 22.1229 30.7821C25.0466 29.5711 27.5454 27.5203 29.3035 24.8891C31.0616 22.2579 32 19.1645 32 16C32 13.8988 31.5861 11.8183 30.7821 9.87706C29.978 7.93585 28.7994 6.17203 27.3137 4.68629C25.828 3.20055 24.0641 2.022 22.1229 1.21793C20.1817 0.413852 18.1012 0 16 0V0ZM16 28.8C13.4684 28.8 10.9937 28.0493 8.88871 26.6428C6.78376 25.2363 5.14315 23.2372 4.17435 20.8983C3.20555 18.5594 2.95206 15.9858 3.44596 13.5028C3.93985 11.0199 5.15893 8.73914 6.94904 6.94903C8.73915 5.15892 11.0199 3.93984 13.5028 3.44595C15.9858 2.95206 18.5595 3.20554 20.8983 4.17434C23.2372 5.14314 25.2363 6.78375 26.6428 8.8887C28.0493 10.9936 28.8 13.4684 28.8 16C28.8 19.3948 27.4514 22.6505 25.051 25.051C22.6505 27.4514 19.3948 28.8 16 28.8V28.8Z" fill="white"/>
<path d="M16 11.2C16.8836 11.2 17.6 10.4837 17.6 9.6C17.6 8.71634 16.8836 8 16 8C15.1163 8 14.4 8.71634 14.4 9.6C14.4 10.4837 15.1163 11.2 16 11.2Z" fill="white"/>
<path d="M16 12.8C15.5756 12.8 15.1687 12.9686 14.8686 13.2686C14.5686 13.5687 14.4 13.9757 14.4 14.4V22.4C14.4 22.8243 14.5686 23.2313 14.8686 23.5314C15.1687 23.8314 15.5756 24 16 24C16.4243 24 16.8313 23.8314 17.1314 23.5314C17.4314 23.2313 17.6 22.8243 17.6 22.4V14.4C17.6 13.9757 17.4314 13.5687 17.1314 13.2686C16.8313 12.9686 16.4243 12.8 16 12.8Z" fill="white"/>
</svg>
