<svg width="159" height="342" viewBox="0 0 159 342" fill="none" xmlns="http://www.w3.org/2000/svg">
<path d="M0 0.164337H79.0123C105.675 0.164337 125.672 7.31614 139.003 21.6197C152.334 35.9233 159 56.8911 159 84.523V118.169C159 145.801 152.334 166.769 139.003 181.072C125.672 195.376 105.675 202.528 79.0123 202.528H53.6503V328C53.6503 328 26.0267 332.701 0 341.5V0.164337ZM79.0123 153.765C87.7914 153.765 94.2945 151.327 98.5215 146.451C103.074 141.575 105.35 133.285 105.35 121.582V81.1097C105.35 69.4067 103.074 61.1172 98.5215 56.2409C94.2945 51.3647 87.7914 48.9266 79.0123 48.9266H53.6503V153.765H79.0123Z" fill="#E10B18"/>
<rect x="54" y="154" width="29.2731" height="49.0187" fill="url(#paint0_linear)" fill-opacity="0.5"/>
<defs>
<linearGradient id="paint0_linear" x1="54" y1="177.113" x2="83.2731" y2="177.113" gradientUnits="userSpaceOnUse">
<stop/>
<stop offset="1" stop-opacity="0"/>
</linearGradient>
</defs>
</svg>
