<svg width="32" height="32" viewBox="0 0 32 32" fill="none" xmlns="http://www.w3.org/2000/svg">
<g clip-path="url(#clip0)">
<path d="M2.33334 32C1.97972 32 1.64058 31.8595 1.39053 31.6095C1.14048 31.3594 1 31.0203 1 30.6667V1.33311C1.00004 1.10142 1.06045 0.873732 1.17529 0.672497C1.29013 0.471261 1.45542 0.303423 1.65488 0.185526C1.85433 0.0676279 2.08107 0.00373982 2.31274 0.000159258C2.54441 -0.0034213 2.77301 0.0534292 2.97601 0.165107L29.6429 14.8319C29.8519 14.947 30.0262 15.1161 30.1477 15.3215C30.2691 15.527 30.3331 15.7612 30.3331 15.9999C30.3331 16.2385 30.2691 16.4728 30.1477 16.6782C30.0262 16.8837 29.8519 17.0528 29.6429 17.1679L2.97601 31.8347C2.77915 31.9431 2.55808 31.9999 2.33334 32Z" fill="black"/>
</g>
<defs>
<clipPath id="clip0">
<rect width="32" height="32" fill="white"/>
</clipPath>
</defs>
</svg>
