<svg width="24" height="24" viewBox="0 0 24 24" fill="none" xmlns="http://www.w3.org/2000/svg">
<path d="M7.5 18C7.36739 18 7.24022 17.9473 7.14645 17.8536C7.05268 17.7598 7 17.6326 7 17.5V6.49992C7.00001 6.41303 7.02267 6.32765 7.06573 6.25219C7.1088 6.17672 7.17078 6.11378 7.24558 6.06957C7.32037 6.02536 7.4054 6.0014 7.49228 6.00006C7.57915 5.99872 7.66488 6.02004 7.74101 6.06192L17.7411 11.562C17.8195 11.6051 17.8848 11.6685 17.9304 11.7456C17.9759 11.8226 17.9999 11.9105 17.9999 12C17.9999 12.0894 17.9759 12.1773 17.9304 12.2543C17.8848 12.3314 17.8195 12.3948 17.7411 12.438L7.74101 17.938C7.66718 17.9786 7.58428 18 7.5 18Z" fill="white"/>
</svg>
