<svg width="24" height="24" viewBox="0 0 24 24" fill="none" xmlns="http://www.w3.org/2000/svg">
<path d="M13.4623 14.8735C12.238 15.744 10.7314 16.1227 9.24097 15.9347C7.75057 15.7466 6.38521 15.0055 5.41548 13.8582C4.44575 12.711 3.94242 11.2412 4.00525 9.74034C4.06807 8.23944 4.69247 6.81692 5.7547 5.7547C6.81692 4.69247 8.23944 4.06807 9.74034 4.00525C11.2412 3.94242 12.711 4.44575 13.8582 5.41548C15.0055 6.38521 15.7466 7.75057 15.9347 9.24097C16.1227 10.7314 15.744 12.238 14.8735 13.4623L19.6835 18.271C19.7816 18.3624 19.8603 18.4727 19.9149 18.5951C19.9695 18.7176 19.9988 18.8498 20.0012 18.9839C20.0035 19.118 19.9789 19.2511 19.9287 19.3755C19.8784 19.4998 19.8037 19.6127 19.7089 19.7076C19.6141 19.8024 19.5011 19.8771 19.3768 19.9273C19.2525 19.9775 19.1193 20.0022 18.9852 19.9998C18.8512 19.9975 18.719 19.9681 18.5965 19.9136C18.474 19.859 18.3638 19.7803 18.2723 19.6822L13.4623 14.8735ZM13.9855 9.99027C13.9855 8.93102 13.5647 7.91515 12.8157 7.16614C12.0667 6.41713 11.0509 5.99634 9.9916 5.99634C8.93235 5.99634 7.91648 6.41713 7.16747 7.16614C6.41846 7.91515 5.99768 8.93102 5.99768 9.99027C5.99768 11.0495 6.41846 12.0654 7.16747 12.8144C7.91648 13.5634 8.93235 13.9842 9.9916 13.9842C11.0509 13.9842 12.0667 13.5634 12.8157 12.8144C13.5647 12.0654 13.9855 11.0495 13.9855 9.99027Z" fill="white"/>
</svg>
