<svg width="24" height="24" viewBox="0 0 24 24" fill="none" xmlns="http://www.w3.org/2000/svg">
<path d="M4.93117 4.96755C4.25059 5.14369 3.62936 5.49829 3.1316 5.99473C1.6228 7.50353 1.6228 10.1374 3.1316 11.6462C3.75888 12.2716 4.57573 12.6713 5.45437 12.7831C6.33302 12.8948 7.22392 12.7122 7.98774 12.2637L11.6988 15.9748C10.8095 17.4786 11.0503 19.5629 12.3163 20.8309C13.0664 21.5796 14.0828 22 15.1426 22C16.2023 22 17.2187 21.5796 17.9688 20.8309C18.4654 20.3337 18.82 19.7127 18.996 19.0324C19.6765 18.8545 20.297 18.5028 20.7946 18.0052C21.1674 17.6353 21.463 17.1951 21.6643 16.71C21.8655 16.2249 21.9683 15.7046 21.9666 15.1794C21.968 14.6544 21.8652 14.1343 21.6642 13.6492C21.4632 13.1642 21.1679 12.7238 20.7956 12.3537C20.1684 11.7284 19.3517 11.3288 18.4732 11.2172C17.5946 11.1057 16.7039 11.2885 15.9404 11.7372L12.2294 8.02612C13.1197 6.52031 12.8789 4.43597 11.6109 3.16897C10.861 2.42042 9.84468 2 8.78511 2C7.72553 2 6.70926 2.42042 5.95935 3.16897C5.46227 3.66601 5.10727 4.28702 4.93117 4.96755V4.96755ZM10.198 4.58085C10.9524 5.33625 10.9534 6.65221 10.198 7.40761L9.49155 8.11405L15.8505 14.472L16.5569 13.7656C16.9321 13.3916 17.4401 13.1817 17.9698 13.1817C18.4995 13.1817 19.0075 13.3916 19.3827 13.7656C20.1391 14.522 20.1371 15.8379 19.3827 16.5923C19.0335 16.9402 18.5662 17.1439 18.0737 17.1629L17.1744 17.2098L17.1275 18.1091C17.1076 18.6014 16.9041 19.0684 16.5569 19.4181C16.1817 19.7923 15.6735 20.0024 15.1436 20.0024C14.6136 20.0024 14.1054 19.7923 13.7302 19.4181C13.3535 19.0414 13.1456 18.5398 13.1456 18.0062C13.1456 17.4726 13.3535 16.971 13.7302 16.5933L14.4366 15.8869L8.07867 9.52792L7.37223 10.2344C6.99704 10.6086 6.48876 10.8187 5.95885 10.8187C5.42894 10.8187 4.92066 10.6086 4.54548 10.2344C3.79207 9.47896 3.79207 8.164 4.54548 7.40861C4.8882 7.06588 5.35383 6.86304 5.85643 6.83706L6.75272 6.7891L6.80068 5.89281C6.82666 5.39021 7.0295 4.92458 7.37223 4.58185C7.74993 4.20515 8.25153 3.99732 8.78511 3.99732C9.31868 3.99732 9.82028 4.20415 10.198 4.58085V4.58085Z" fill="white"/>
</svg>
